<mxfile host="app.diagrams.net" modified="2023-09-25T11:33:20.777Z" agent="Mozilla/5.0 (Macintosh; Intel Mac OS X 10_15_7) AppleWebKit/537.36 (KHTML, like Gecko) Chrome/116.0.0.0 Safari/537.36" etag="8kDJHVaejSZbHB-VTchu" version="21.7.5" type="device">
  <diagram name="Page-1" id="72YmVpOhpKJQarRR1SKP">
    <mxGraphModel dx="2074" dy="1267" grid="1" gridSize="10" guides="1" tooltips="1" connect="1" arrows="1" fold="1" page="1" pageScale="1" pageWidth="827" pageHeight="1169" math="0" shadow="0">
      <root>
        <mxCell id="0" />
        <mxCell id="1" parent="0" />
        <mxCell id="nI3-wS_FLWxOr_Mkdef0-1" value="Smart Shopper" style="swimlane;whiteSpace=wrap;html=1;fillColor=#99CCFF;" vertex="1" parent="1">
          <mxGeometry x="250" y="80" width="380" height="600" as="geometry" />
        </mxCell>
        <mxCell id="nI3-wS_FLWxOr_Mkdef0-6" value="User Registration" style="ellipse;whiteSpace=wrap;html=1;" vertex="1" parent="nI3-wS_FLWxOr_Mkdef0-1">
          <mxGeometry x="78" y="40" width="90" height="40" as="geometry" />
        </mxCell>
        <mxCell id="nI3-wS_FLWxOr_Mkdef0-7" value="User Login" style="ellipse;whiteSpace=wrap;html=1;" vertex="1" parent="nI3-wS_FLWxOr_Mkdef0-1">
          <mxGeometry x="78" y="120" width="90" height="40" as="geometry" />
        </mxCell>
        <mxCell id="nI3-wS_FLWxOr_Mkdef0-8" value="Find Nearest Supermarket" style="ellipse;whiteSpace=wrap;html=1;" vertex="1" parent="nI3-wS_FLWxOr_Mkdef0-1">
          <mxGeometry x="208" y="160" width="90" height="40" as="geometry" />
        </mxCell>
        <mxCell id="nI3-wS_FLWxOr_Mkdef0-9" value="Share &lt;br&gt;Grocery List" style="ellipse;whiteSpace=wrap;html=1;" vertex="1" parent="nI3-wS_FLWxOr_Mkdef0-1">
          <mxGeometry x="208" y="320" width="90" height="40" as="geometry" />
        </mxCell>
        <mxCell id="nI3-wS_FLWxOr_Mkdef0-10" value="Log Out" style="ellipse;whiteSpace=wrap;html=1;" vertex="1" parent="nI3-wS_FLWxOr_Mkdef0-1">
          <mxGeometry x="208" y="80" width="90" height="40" as="geometry" />
        </mxCell>
        <mxCell id="nI3-wS_FLWxOr_Mkdef0-11" value="Retrieve Supermart info" style="ellipse;whiteSpace=wrap;html=1;" vertex="1" parent="nI3-wS_FLWxOr_Mkdef0-1">
          <mxGeometry x="145" y="470" width="90" height="40" as="geometry" />
        </mxCell>
        <mxCell id="nI3-wS_FLWxOr_Mkdef0-12" value="Get Price and Product Info" style="ellipse;whiteSpace=wrap;html=1;" vertex="1" parent="nI3-wS_FLWxOr_Mkdef0-1">
          <mxGeometry x="145" y="530" width="90" height="40" as="geometry" />
        </mxCell>
        <mxCell id="nI3-wS_FLWxOr_Mkdef0-18" value="View &lt;br&gt;Grocery List" style="ellipse;whiteSpace=wrap;html=1;" vertex="1" parent="nI3-wS_FLWxOr_Mkdef0-1">
          <mxGeometry x="208" y="240" width="90" height="40" as="geometry" />
        </mxCell>
        <mxCell id="nI3-wS_FLWxOr_Mkdef0-19" value="Compare Prices" style="ellipse;whiteSpace=wrap;html=1;" vertex="1" parent="nI3-wS_FLWxOr_Mkdef0-1">
          <mxGeometry x="145" y="410" width="90" height="40" as="geometry" />
        </mxCell>
        <mxCell id="nI3-wS_FLWxOr_Mkdef0-20" value="Create &lt;br&gt;Grocery List" style="ellipse;whiteSpace=wrap;html=1;" vertex="1" parent="nI3-wS_FLWxOr_Mkdef0-1">
          <mxGeometry x="78" y="200" width="90" height="40" as="geometry" />
        </mxCell>
        <mxCell id="nI3-wS_FLWxOr_Mkdef0-21" value="Add Item to Grocery List" style="ellipse;whiteSpace=wrap;html=1;" vertex="1" parent="nI3-wS_FLWxOr_Mkdef0-1">
          <mxGeometry x="78" y="280" width="90" height="40" as="geometry" />
        </mxCell>
        <mxCell id="nI3-wS_FLWxOr_Mkdef0-22" style="edgeStyle=orthogonalEdgeStyle;rounded=0;orthogonalLoop=1;jettySize=auto;html=1;exitX=0.5;exitY=0.5;exitDx=0;exitDy=0;exitPerimeter=0;entryX=0;entryY=0.5;entryDx=0;entryDy=0;" edge="1" parent="1" source="nI3-wS_FLWxOr_Mkdef0-2" target="nI3-wS_FLWxOr_Mkdef0-6">
          <mxGeometry relative="1" as="geometry" />
        </mxCell>
        <mxCell id="nI3-wS_FLWxOr_Mkdef0-23" style="edgeStyle=orthogonalEdgeStyle;rounded=0;orthogonalLoop=1;jettySize=auto;html=1;exitX=0.5;exitY=0.5;exitDx=0;exitDy=0;exitPerimeter=0;entryX=0;entryY=0.5;entryDx=0;entryDy=0;" edge="1" parent="1" source="nI3-wS_FLWxOr_Mkdef0-2" target="nI3-wS_FLWxOr_Mkdef0-7">
          <mxGeometry relative="1" as="geometry" />
        </mxCell>
        <mxCell id="nI3-wS_FLWxOr_Mkdef0-24" style="edgeStyle=orthogonalEdgeStyle;rounded=0;orthogonalLoop=1;jettySize=auto;html=1;exitX=0.5;exitY=0.5;exitDx=0;exitDy=0;exitPerimeter=0;entryX=0;entryY=0.5;entryDx=0;entryDy=0;" edge="1" parent="1" source="nI3-wS_FLWxOr_Mkdef0-2" target="nI3-wS_FLWxOr_Mkdef0-20">
          <mxGeometry relative="1" as="geometry" />
        </mxCell>
        <mxCell id="nI3-wS_FLWxOr_Mkdef0-25" style="edgeStyle=orthogonalEdgeStyle;rounded=0;orthogonalLoop=1;jettySize=auto;html=1;exitX=0.5;exitY=0.5;exitDx=0;exitDy=0;exitPerimeter=0;entryX=0;entryY=0.5;entryDx=0;entryDy=0;" edge="1" parent="1" source="nI3-wS_FLWxOr_Mkdef0-2" target="nI3-wS_FLWxOr_Mkdef0-21">
          <mxGeometry relative="1" as="geometry" />
        </mxCell>
        <mxCell id="nI3-wS_FLWxOr_Mkdef0-34" style="edgeStyle=orthogonalEdgeStyle;rounded=0;orthogonalLoop=1;jettySize=auto;html=1;exitX=0.5;exitY=0.5;exitDx=0;exitDy=0;exitPerimeter=0;entryX=0;entryY=0.5;entryDx=0;entryDy=0;" edge="1" parent="1" source="nI3-wS_FLWxOr_Mkdef0-2" target="nI3-wS_FLWxOr_Mkdef0-9">
          <mxGeometry relative="1" as="geometry">
            <mxPoint x="90" y="250" as="sourcePoint" />
            <mxPoint x="405" y="420" as="targetPoint" />
            <Array as="points">
              <mxPoint x="195" y="260" />
              <mxPoint x="195" y="420" />
            </Array>
          </mxGeometry>
        </mxCell>
        <mxCell id="nI3-wS_FLWxOr_Mkdef0-35" style="edgeStyle=orthogonalEdgeStyle;rounded=0;orthogonalLoop=1;jettySize=auto;html=1;exitX=0.5;exitY=0.5;exitDx=0;exitDy=0;exitPerimeter=0;entryX=0;entryY=0.5;entryDx=0;entryDy=0;" edge="1" parent="1" source="nI3-wS_FLWxOr_Mkdef0-2" target="nI3-wS_FLWxOr_Mkdef0-10">
          <mxGeometry relative="1" as="geometry">
            <mxPoint x="100" y="230" as="sourcePoint" />
            <mxPoint x="415" y="170" as="targetPoint" />
            <Array as="points">
              <mxPoint x="195" y="260" />
              <mxPoint x="195" y="180" />
            </Array>
          </mxGeometry>
        </mxCell>
        <mxCell id="nI3-wS_FLWxOr_Mkdef0-36" style="edgeStyle=orthogonalEdgeStyle;rounded=0;orthogonalLoop=1;jettySize=auto;html=1;exitX=0.5;exitY=0.5;exitDx=0;exitDy=0;exitPerimeter=0;entryX=0;entryY=0.5;entryDx=0;entryDy=0;" edge="1" parent="1" source="nI3-wS_FLWxOr_Mkdef0-2" target="nI3-wS_FLWxOr_Mkdef0-18">
          <mxGeometry relative="1" as="geometry">
            <mxPoint x="90" y="230" as="sourcePoint" />
            <mxPoint x="405" y="290" as="targetPoint" />
            <Array as="points">
              <mxPoint x="195" y="260" />
              <mxPoint x="195" y="340" />
            </Array>
          </mxGeometry>
        </mxCell>
        <mxCell id="nI3-wS_FLWxOr_Mkdef0-38" style="edgeStyle=orthogonalEdgeStyle;rounded=0;orthogonalLoop=1;jettySize=auto;html=1;exitX=0.5;exitY=0.5;exitDx=0;exitDy=0;exitPerimeter=0;" edge="1" parent="1" source="nI3-wS_FLWxOr_Mkdef0-2" target="nI3-wS_FLWxOr_Mkdef0-19">
          <mxGeometry relative="1" as="geometry">
            <mxPoint x="95" y="250" as="sourcePoint" />
            <mxPoint x="445" y="490.12384020000195" as="targetPoint" />
            <Array as="points">
              <mxPoint x="195" y="260" />
              <mxPoint x="195" y="460" />
              <mxPoint x="440" y="460" />
            </Array>
          </mxGeometry>
        </mxCell>
        <mxCell id="nI3-wS_FLWxOr_Mkdef0-39" style="edgeStyle=orthogonalEdgeStyle;rounded=0;orthogonalLoop=1;jettySize=auto;html=1;exitX=0.5;exitY=0.5;exitDx=0;exitDy=0;exitPerimeter=0;" edge="1" parent="1" source="nI3-wS_FLWxOr_Mkdef0-2" target="nI3-wS_FLWxOr_Mkdef0-8">
          <mxGeometry relative="1" as="geometry" />
        </mxCell>
        <mxCell id="nI3-wS_FLWxOr_Mkdef0-2" value="User" style="shape=umlActor;verticalLabelPosition=bottom;verticalAlign=top;html=1;outlineConnect=0;" vertex="1" parent="1">
          <mxGeometry x="80" y="230" width="30" height="60" as="geometry" />
        </mxCell>
        <mxCell id="nI3-wS_FLWxOr_Mkdef0-26" style="edgeStyle=orthogonalEdgeStyle;rounded=0;orthogonalLoop=1;jettySize=auto;html=1;exitX=0.5;exitY=0.5;exitDx=0;exitDy=0;exitPerimeter=0;" edge="1" parent="1" source="nI3-wS_FLWxOr_Mkdef0-3" target="nI3-wS_FLWxOr_Mkdef0-11">
          <mxGeometry relative="1" as="geometry">
            <Array as="points">
              <mxPoint x="150" y="570" />
              <mxPoint x="150" y="570" />
            </Array>
          </mxGeometry>
        </mxCell>
        <mxCell id="nI3-wS_FLWxOr_Mkdef0-27" style="edgeStyle=orthogonalEdgeStyle;rounded=0;orthogonalLoop=1;jettySize=auto;html=1;exitX=0.5;exitY=0.5;exitDx=0;exitDy=0;exitPerimeter=0;entryX=0;entryY=0.5;entryDx=0;entryDy=0;" edge="1" parent="1" source="nI3-wS_FLWxOr_Mkdef0-3" target="nI3-wS_FLWxOr_Mkdef0-12">
          <mxGeometry relative="1" as="geometry">
            <Array as="points">
              <mxPoint x="200" y="570" />
              <mxPoint x="200" y="630" />
            </Array>
          </mxGeometry>
        </mxCell>
        <mxCell id="nI3-wS_FLWxOr_Mkdef0-28" style="edgeStyle=orthogonalEdgeStyle;rounded=0;orthogonalLoop=1;jettySize=auto;html=1;exitX=0.5;exitY=0.5;exitDx=0;exitDy=0;exitPerimeter=0;entryX=0;entryY=0.5;entryDx=0;entryDy=0;" edge="1" parent="1" source="nI3-wS_FLWxOr_Mkdef0-3" target="nI3-wS_FLWxOr_Mkdef0-19">
          <mxGeometry relative="1" as="geometry">
            <Array as="points">
              <mxPoint x="200" y="570" />
              <mxPoint x="200" y="510" />
            </Array>
          </mxGeometry>
        </mxCell>
        <mxCell id="nI3-wS_FLWxOr_Mkdef0-3" value="Supermarket" style="shape=umlActor;verticalLabelPosition=bottom;verticalAlign=top;html=1;outlineConnect=0;" vertex="1" parent="1">
          <mxGeometry x="80" y="540" width="30" height="60" as="geometry" />
        </mxCell>
        <mxCell id="nI3-wS_FLWxOr_Mkdef0-30" style="edgeStyle=orthogonalEdgeStyle;rounded=0;orthogonalLoop=1;jettySize=auto;html=1;exitX=0.5;exitY=0.5;exitDx=0;exitDy=0;exitPerimeter=0;entryX=1;entryY=0.5;entryDx=0;entryDy=0;" edge="1" parent="1" source="nI3-wS_FLWxOr_Mkdef0-4" target="nI3-wS_FLWxOr_Mkdef0-8">
          <mxGeometry relative="1" as="geometry" />
        </mxCell>
        <mxCell id="nI3-wS_FLWxOr_Mkdef0-4" value="GPS Service" style="shape=umlActor;verticalLabelPosition=bottom;verticalAlign=top;html=1;outlineConnect=0;" vertex="1" parent="1">
          <mxGeometry x="770" y="230" width="30" height="60" as="geometry" />
        </mxCell>
        <mxCell id="nI3-wS_FLWxOr_Mkdef0-31" style="edgeStyle=orthogonalEdgeStyle;rounded=0;orthogonalLoop=1;jettySize=auto;html=1;exitX=0.5;exitY=0.5;exitDx=0;exitDy=0;exitPerimeter=0;entryX=1;entryY=0.5;entryDx=0;entryDy=0;" edge="1" parent="1" source="nI3-wS_FLWxOr_Mkdef0-5" target="nI3-wS_FLWxOr_Mkdef0-12">
          <mxGeometry relative="1" as="geometry">
            <Array as="points">
              <mxPoint x="690" y="570" />
              <mxPoint x="690" y="630" />
            </Array>
          </mxGeometry>
        </mxCell>
        <mxCell id="nI3-wS_FLWxOr_Mkdef0-32" style="edgeStyle=orthogonalEdgeStyle;rounded=0;orthogonalLoop=1;jettySize=auto;html=1;exitX=0.5;exitY=0.5;exitDx=0;exitDy=0;exitPerimeter=0;" edge="1" parent="1" source="nI3-wS_FLWxOr_Mkdef0-5" target="nI3-wS_FLWxOr_Mkdef0-11">
          <mxGeometry relative="1" as="geometry">
            <Array as="points">
              <mxPoint x="740" y="570" />
              <mxPoint x="740" y="570" />
            </Array>
          </mxGeometry>
        </mxCell>
        <mxCell id="nI3-wS_FLWxOr_Mkdef0-33" style="edgeStyle=orthogonalEdgeStyle;rounded=0;orthogonalLoop=1;jettySize=auto;html=1;exitX=0.5;exitY=0.5;exitDx=0;exitDy=0;exitPerimeter=0;entryX=1;entryY=0.5;entryDx=0;entryDy=0;" edge="1" parent="1" source="nI3-wS_FLWxOr_Mkdef0-5" target="nI3-wS_FLWxOr_Mkdef0-19">
          <mxGeometry relative="1" as="geometry">
            <Array as="points">
              <mxPoint x="690" y="570" />
              <mxPoint x="690" y="510" />
            </Array>
          </mxGeometry>
        </mxCell>
        <mxCell id="nI3-wS_FLWxOr_Mkdef0-5" value="External Database" style="shape=umlActor;verticalLabelPosition=bottom;verticalAlign=top;html=1;outlineConnect=0;" vertex="1" parent="1">
          <mxGeometry x="770" y="540" width="30" height="60" as="geometry" />
        </mxCell>
      </root>
    </mxGraphModel>
  </diagram>
</mxfile>
